<?xml version="1.0" encoding="UTF-8"?>
<!DOCTYPE svg PUBLIC "-//W3C//DTD SVG 1.1//EN" "http://www.w3.org/Graphics/SVG/1.1/DTD/svg11.dtd">
<!-- Creator: CorelDRAW -->
<svg xmlns="http://www.w3.org/2000/svg" xml:space="preserve" width="17.268mm" height="6.2472mm" version="1.1" style="shape-rendering:geometricPrecision; text-rendering:geometricPrecision; image-rendering:optimizeQuality; fill-rule:evenodd; clip-rule:evenodd"
viewBox="0 0 359.57 130.08"
 xmlns:xlink="http://www.w3.org/1999/xlink"
 xmlns:xodm="http://www.corel.com/coreldraw/odm/2003">
 <defs>
  <style type="text/css">
   <![CDATA[
    .fil0 {fill:#FEFEFE}
    .fil1 {fill:aqua}
   ]]>
  </style>
 </defs>
 <g id="Layer_x0020_1">
  <metadata id="CorelCorpID_0Corel-Layer"/>
  <g id="_2314556784720">
   <g>
    <image x="6.1" y="7.55" width="340.49" height="122.53" xlink:href="Stacke logo_Images\Stacke logo_ImgID1.png"/>
   </g>
   <path class="fil0" d="M0 108.62l0 -89.89 20.06 0 0 72.02 38.32 0 0 9.69 -26.52 8.19 -31.87 0zm137.09 0l-8.36 -19.42 -4.59 0 22.86 -7.06 11.44 26.48 -21.35 0zm-42.33 -19.42l-3.71 0 -0.57 1.32 -24.6 7.59 34.3 -79.39 19.42 0 23.94 55.41 -48.78 15.06zm-8.79 11.78l-3.29 7.64 -21.35 0 0.02 -0.04 24.62 -7.6zm23.98 -55.51l-11.32 26.11 22.51 0 -11.19 -26.11zm87.19 -11.19c-3.34,0 -5.98,0.79 -7.91,2.38 -1.93,1.59 -2.89,3.69 -2.89,6.3 0,2.62 1.18,4.7 3.54,6.24 2.36,1.54 7.8,3.36 16.33,5.47l0.22 0.05 -30.66 9.47c-1.04,-0.66 -2,-1.35 -2.86,-2.06 -4.84,-3.99 -7.27,-10.25 -7.27,-18.78 0,-8.53 3.07,-15.11 9.2,-19.74 6.13,-4.63 13.78,-6.94 22.95,-6.94 6,0 12,1.03 18.01,3.09 6,2.06 11.23,4.97 15.69,8.74l-10.16 14.66c-7.8,-5.92 -15.86,-8.87 -24.18,-8.87zm22.56 25.41c2.41,1.32 4.54,2.79 6.37,4.43 4.71,4.2 7.07,10.33 7.07,18.39 0,8.06 -3.02,14.6 -9.07,19.61 -6.04,5.02 -14,7.52 -23.86,7.52 -14.23,0 -27.05,-5.27 -38.45,-15.82l11.96 -14.66c9.69,8.49 18.65,12.73 26.88,12.73 3.69,0 6.58,-0.79 8.68,-2.38 2.1,-1.59 3.15,-3.73 3.15,-6.43 0,-2.7 -1.11,-4.85 -3.34,-6.43 -2.23,-1.59 -6.64,-3.19 -13.25,-4.82 -2.93,-0.7 -5.64,-1.45 -8.13,-2.27l31.98 -9.87zm95.36 -40.97l0 2.46 -64.82 20.01 0 -22.47 64.82 0zm0 11.53l0 6.35 -20.56 0 20.56 -6.35zm-44.75 13.82l0 11.05 40.25 0 0 17.1 -40.25 0 0 18.65 46.17 0 0 17.75 -66.23 0 0 -58.35 20.06 -6.19z"/>
   <circle class="fil1" cx="344.08" cy="15.49" r="15.49"/>
  </g>
 </g>
</svg>
